<svg width="124" height="115" viewBox="0 0 124 115" fill="none" xmlns="http://www.w3.org/2000/svg">
<path d="M63.0314 2.71702L54.6108 17.7109C53.8971 18.9816 52.3012 19.4526 51.012 18.7729L33.1095 9.33559C31.024 8.23622 28.6339 10.1615 29.264 12.4332L33.5129 27.7535C33.96 29.3657 32.8423 30.9904 31.1768 31.1493L11.3274 33.0427C9.1139 33.2539 8.09836 35.9073 9.60524 37.5423L19.8132 48.6185C21.0098 49.9169 20.6517 51.9966 19.0898 52.8199L2.78099 61.4172C0.584849 62.5749 0.996349 65.8361 3.41124 66.412L21.4445 70.7124C23.176 71.1254 24.0358 73.0762 23.1724 74.6327L14.4973 90.2727C13.3354 92.3675 15.2858 94.8216 17.5889 94.1626L36.1637 88.847C37.9387 88.3391 39.6859 89.7299 39.5891 91.5736L38.7385 107.761C38.6181 110.052 41.2377 111.432 43.0592 110.037L59.3615 97.5504C60.5237 96.6603 62.1844 96.8632 63.098 98.007L74.3099 112.044C75.6997 113.784 78.481 113.178 79.0203 111.017L83.748 92.0765C84.1357 90.5233 85.7862 89.6506 87.2881 90.2048L104.393 96.5168C106.6 97.3311 108.715 95.12 107.803 92.9517L100.645 75.9235C99.9862 74.3562 100.929 72.5784 102.596 72.2445L120.223 68.7134C122.553 68.2467 123.177 65.2092 121.22 63.8617L107.445 54.3765C106.062 53.4239 105.881 51.4502 107.067 50.2615L119.163 38.1466C120.855 36.4519 119.655 33.5573 117.26 33.5573H98.5121C96.8403 33.5573 95.5736 32.048 95.8637 30.4015L98.5213 15.3178C98.8893 13.2293 96.808 11.5566 94.8475 12.3651L78.6629 19.0399C77.3591 19.5776 75.8614 19.0168 75.2315 17.755L67.7823 2.83273C66.8185 0.90219 64.088 0.835686 63.0314 2.71702Z" fill="#FCF6ED" stroke="#FCF6ED" stroke-width="2.68923"/>
</svg>
